<svg id="Ebene_1" data-name="Ebene 1" xmlns="http://www.w3.org/2000/svg" viewBox="0 0 382.8 60"><defs><style>.cls-1{fill:#1d1d1b;}.cls-2{fill:#e7343d;}</style></defs><title>derjapaner_basic_rgb</title><path class="cls-1" d="M32.79,2.74h9.6l-8,45.36H25.53L26.25,44h-.18a10.47,10.47,0,0,1-4.2,3.54,13.62,13.62,0,0,1-5.94,1.26,13.37,13.37,0,0,1-5.19-1,11,11,0,0,1-3.9-2.67,11.65,11.65,0,0,1-2.43-4A15.18,15.18,0,0,1,3.57,36a20.78,20.78,0,0,1,1.23-7.2A18.44,18.44,0,0,1,8.22,22.9a16.22,16.22,0,0,1,5.22-4,15,15,0,0,1,6.63-1.47,12.11,12.11,0,0,1,5.7,1.26,8.69,8.69,0,0,1,3.6,3.36h.12Zm-19.68,32a6.63,6.63,0,0,0,1.56,4.5A5.78,5.78,0,0,0,19.29,41a7.65,7.65,0,0,0,3.36-.75,8.26,8.26,0,0,0,2.7-2.07,9.67,9.67,0,0,0,1.77-3.06,10.67,10.67,0,0,0,.63-3.66A6.31,6.31,0,0,0,26.07,27a6,6,0,0,0-4.56-1.77,7.93,7.93,0,0,0-3.48.75,7.72,7.72,0,0,0-2.64,2,9.48,9.48,0,0,0-1.68,3A11.33,11.33,0,0,0,13.11,34.72Z" transform="translate(-3.57 -2.74)"/><path class="cls-1" d="M49.23,35.74a1.82,1.82,0,0,0-.06.54,4.42,4.42,0,0,0,.56,2.25,5.47,5.47,0,0,0,1.5,1.68,6.9,6.9,0,0,0,2.1,1,8.23,8.23,0,0,0,2.44.36,9.13,9.13,0,0,0,4-.84A10.8,10.8,0,0,0,62.9,38.5L69,43.24a17.22,17.22,0,0,1-6.42,4.41A21.21,21.21,0,0,1,54.92,49a18.59,18.59,0,0,1-5.79-.87,13.35,13.35,0,0,1-4.65-2.58,12.21,12.21,0,0,1-3.12-4.23,13.84,13.84,0,0,1-1.13-5.76,18.9,18.9,0,0,1,1.34-7.17,18.16,18.16,0,0,1,3.72-5.79A17.1,17.1,0,0,1,51,18.73a18.3,18.3,0,0,1,7.27-1.41,16.29,16.29,0,0,1,5.36.84,12,12,0,0,1,4.18,2.43,10.88,10.88,0,0,1,2.69,3.93,14.14,14.14,0,0,1,1,5.4,22.39,22.39,0,0,1-.21,2.73,29,29,0,0,1-.56,3.09Zm13.61-5.88a3.05,3.05,0,0,0,.06-.6v-.6a4.36,4.36,0,0,0-1.4-3.3A5.75,5.75,0,0,0,57.44,24a7.13,7.13,0,0,0-2.91.57A8.77,8.77,0,0,0,52.28,26a7.94,7.94,0,0,0-2.4,3.84Z" transform="translate(-3.57 -2.74)"/><path class="cls-1" d="M85.94,22.6a13.13,13.13,0,0,1,3.45-3.72,8.07,8.07,0,0,1,4.83-1.44,10.6,10.6,0,0,1,1.11.06,4.51,4.51,0,0,1,.93.18L94.7,26.2A7.72,7.72,0,0,0,93.44,26q-.6-.06-1.14-.06a7.86,7.86,0,0,0-3.54.72,7.74,7.74,0,0,0-2.37,1.77A7.2,7.2,0,0,0,85,30.64a13.87,13.87,0,0,0-.63,2.1L81.68,48.1h-9.6l4.26-23.7q.24-1.14.51-2.94t.39-3.24h9.12q0,.3-.06.87t-.15,1.2L86,21.55l-.15,1.05Z" transform="translate(-3.57 -2.74)"/><path class="cls-1" d="M105.56,49.24a32.52,32.52,0,0,1-1.35,5.16,14.17,14.17,0,0,1-2.4,4.32,10.6,10.6,0,0,1-4,2.94,15,15,0,0,1-6.09,1.08,16.59,16.59,0,0,1-2.16-.15,14.16,14.16,0,0,1-2-.39l1.74-8a5.24,5.24,0,0,0,1.08.24,9,9,0,0,0,1,.06,3.44,3.44,0,0,0,3.15-1.47,10.62,10.62,0,0,0,1.35-3.81l5.46-31H111Z" transform="translate(-3.57 -2.74)"/><path class="cls-1" d="M141.56,27q0,.84-.09,1.8a18.09,18.09,0,0,1-.27,1.86l-2,11.64q-.3,1.56-.45,3.18t-.15,2.64H130q0-.66.06-1.53t.18-1.65h-.12a11.31,11.31,0,0,1-9.12,3.9,13.93,13.93,0,0,1-3.21-.39,8.81,8.81,0,0,1-3-1.32,7.05,7.05,0,0,1-2.19-2.46,7.7,7.7,0,0,1-.84-3.75A9.2,9.2,0,0,1,113.6,35a11.89,11.89,0,0,1,4.71-3.54,24.52,24.52,0,0,1,6.6-1.74,57.38,57.38,0,0,1,7.41-.48,4.16,4.16,0,0,0,.12-.84v-.54a2.83,2.83,0,0,0-1.23-2.55,6.24,6.24,0,0,0-3.45-.81,11.59,11.59,0,0,0-4.11.78,15.06,15.06,0,0,0-3.75,2l-4-5.52a19.93,19.93,0,0,1,6.21-3.33,21.82,21.82,0,0,1,6.93-1.17,20.51,20.51,0,0,1,5,.57A11.24,11.24,0,0,1,138,19.66a8.76,8.76,0,0,1,2.61,3A9.07,9.07,0,0,1,141.56,27Zm-10.62,8q-1.8,0-3.66.15a14.49,14.49,0,0,0-3.33.63,6.88,6.88,0,0,0-2.43,1.32,2.81,2.81,0,0,0-1,2.22,2.47,2.47,0,0,0,1.23,2.43,5.9,5.9,0,0,0,2.73.63,6.57,6.57,0,0,0,4.62-1.71,7.5,7.5,0,0,0,2.34-4.23l.3-1.44Z" transform="translate(-3.57 -2.74)"/><path class="cls-1" d="M152.42,62.5h-9.6l7.8-44.28h9.12L159,22.36h.18a11.79,11.79,0,0,1,4.23-3.57A12.12,12.12,0,0,1,169,17.5a13.8,13.8,0,0,1,5.28,1,11.26,11.26,0,0,1,4,2.67,11.37,11.37,0,0,1,2.46,4.08,15.25,15.25,0,0,1,.84,5.13,21,21,0,0,1-1.23,7.23,18.26,18.26,0,0,1-3.45,5.91,16.56,16.56,0,0,1-5.25,4A15,15,0,0,1,165,48.94a12.35,12.35,0,0,1-5.7-1.23,8.45,8.45,0,0,1-3.6-3.33h-.12Zm19.5-30.9a6.74,6.74,0,0,0-1.56-4.53,5.66,5.66,0,0,0-4.56-1.83,7.41,7.41,0,0,0-3.36.78,8.64,8.64,0,0,0-2.7,2.1,10.34,10.34,0,0,0-2.46,6.72A6.31,6.31,0,0,0,159,39.37a6.06,6.06,0,0,0,4.62,1.77,7.74,7.74,0,0,0,3.45-.75,7.9,7.9,0,0,0,2.61-2,9.48,9.48,0,0,0,1.68-3A11.33,11.33,0,0,0,171.92,31.6Z" transform="translate(-3.57 -2.74)"/><path class="cls-1" d="M212.78,27q0,.84-.09,1.8a18.09,18.09,0,0,1-.27,1.86l-2,11.64q-.3,1.56-.45,3.18t-.15,2.64h-8.52q0-.66.06-1.53t.18-1.65h-.12a11.31,11.31,0,0,1-9.12,3.9,13.93,13.93,0,0,1-3.21-.39,8.81,8.81,0,0,1-3-1.32,7.05,7.05,0,0,1-2.19-2.46A7.7,7.7,0,0,1,183,40.9a9.2,9.2,0,0,1,1.8-5.88,11.89,11.89,0,0,1,4.71-3.54,24.52,24.52,0,0,1,6.6-1.74,57.38,57.38,0,0,1,7.41-.48,4.16,4.16,0,0,0,.12-.84v-.54a2.83,2.83,0,0,0-1.23-2.55,6.24,6.24,0,0,0-3.45-.81,11.59,11.59,0,0,0-4.11.78,15.06,15.06,0,0,0-3.75,2l-4-5.52a19.93,19.93,0,0,1,6.21-3.33,21.82,21.82,0,0,1,6.93-1.17,20.51,20.51,0,0,1,5,.57,11.24,11.24,0,0,1,3.93,1.77,8.76,8.76,0,0,1,2.61,3A9.07,9.07,0,0,1,212.78,27Zm-10.62,8q-1.8,0-3.66.15a14.49,14.49,0,0,0-3.33.63,6.88,6.88,0,0,0-2.43,1.32,2.81,2.81,0,0,0-1,2.22A2.47,2.47,0,0,0,193,41.77a5.9,5.9,0,0,0,2.73.63,6.57,6.57,0,0,0,4.62-1.71,7.5,7.5,0,0,0,2.34-4.23L203,35Z" transform="translate(-3.57 -2.74)"/><path class="cls-1" d="M229.16,22.54A11.62,11.62,0,0,1,233,18.88a10.52,10.52,0,0,1,5.52-1.44,11.63,11.63,0,0,1,4.32.72,8.07,8.07,0,0,1,3,2,7.78,7.78,0,0,1,1.71,2.91,11,11,0,0,1,.54,3.45q0,.84-.06,1.65a10.51,10.51,0,0,1-.24,1.59L244.52,48.1h-9.6l2.82-16.16a11.93,11.93,0,0,0,.3-2.51,4.64,4.64,0,0,0-.87-2.85,3.61,3.61,0,0,0-3.09-1.16,5.35,5.35,0,0,0-2.37.51,5.85,5.85,0,0,0-1.86,1.4,7.49,7.49,0,0,0-1.32,2.1,11.58,11.58,0,0,0-.75,2.51L224.9,48.1h-9.6l4.14-23.7q.24-1.14.51-2.94t.39-3.24h9.18q-.06.72-.21,2T229,22.54Z" transform="translate(-3.57 -2.74)"/><path class="cls-1" d="M260.3,35.74a2.23,2.23,0,0,0-.06.54,4.43,4.43,0,0,0,.57,2.25,5.47,5.47,0,0,0,1.5,1.68,6.9,6.9,0,0,0,2.1,1,8.22,8.22,0,0,0,2.43.36,9.14,9.14,0,0,0,4-.84A10.8,10.8,0,0,0,274,38.5L280,43.24a17.22,17.22,0,0,1-6.42,4.41A21.21,21.21,0,0,1,266,49a18.59,18.59,0,0,1-5.79-.87,13.35,13.35,0,0,1-4.65-2.58,12.08,12.08,0,0,1-3.12-4.23,13.84,13.84,0,0,1-1.14-5.76,18.9,18.9,0,0,1,1.35-7.17,18,18,0,0,1,3.72-5.79A17.1,17.1,0,0,1,262,18.73a18.29,18.29,0,0,1,7.26-1.41,16.35,16.35,0,0,1,5.37.84,11.82,11.82,0,0,1,4.17,2.43,10.78,10.78,0,0,1,2.7,3.93,14.14,14.14,0,0,1,1,5.4,22.39,22.39,0,0,1-.21,2.73,26.6,26.6,0,0,1-.57,3.09Zm13.62-5.88a3.05,3.05,0,0,0,.06-.6v-.6a4.33,4.33,0,0,0-1.41-3.3A5.71,5.71,0,0,0,268.52,24a7.13,7.13,0,0,0-2.91.57A8.77,8.77,0,0,0,263.36,26a7.74,7.74,0,0,0-2.4,3.84Z" transform="translate(-3.57 -2.74)"/><path class="cls-1" d="M298.22,22.6a13.13,13.13,0,0,1,3.45-3.72,8.07,8.07,0,0,1,4.83-1.44,10.6,10.6,0,0,1,1.11.06,4.51,4.51,0,0,1,.93.18L307,26.2a7.72,7.72,0,0,0-1.26-.24q-.6-.06-1.14-.06a7.86,7.86,0,0,0-3.54.72,7.74,7.74,0,0,0-2.37,1.77,7.2,7.2,0,0,0-1.38,2.25,13.87,13.87,0,0,0-.63,2.1L294,48.1h-9.6l4.26-23.7q.24-1.14.51-2.94t.39-3.24h9.12q0,.3-.06.87t-.15,1.2l-.18,1.26-.15,1.05Z" transform="translate(-3.57 -2.74)"/><path class="cls-1" d="M313.88,42.46a6,6,0,0,1-.45,2.34,6.43,6.43,0,0,1-1.23,1.92A5.55,5.55,0,0,1,310.31,48a5.91,5.91,0,0,1-2.37.48,5.66,5.66,0,0,1-4-1.41,4.78,4.78,0,0,1-1.53-3.69A5.94,5.94,0,0,1,304.16,39a5.87,5.87,0,0,1,4.32-1.74,5.36,5.36,0,0,1,3.87,1.47A4.9,4.9,0,0,1,313.88,42.46Z" transform="translate(-3.57 -2.74)"/><path class="cls-1" d="M346.52,2.74h9.6l-8,45.36h-8.82L340,44h-.18a10.4,10.4,0,0,1-4.2,3.54,13.62,13.62,0,0,1-5.94,1.26,13.41,13.41,0,0,1-5.19-1,11,11,0,0,1-3.9-2.67,11.65,11.65,0,0,1-2.43-4A15.18,15.18,0,0,1,317.3,36a20.78,20.78,0,0,1,1.23-7.2A18.63,18.63,0,0,1,322,22.9a16.22,16.22,0,0,1,5.22-4,15,15,0,0,1,6.63-1.47,12.11,12.11,0,0,1,5.7,1.26,8.63,8.63,0,0,1,3.6,3.36h.12Zm-19.68,32a6.63,6.63,0,0,0,1.56,4.5A5.78,5.78,0,0,0,333,41a7.65,7.65,0,0,0,3.36-.75,8.26,8.26,0,0,0,2.7-2.07,9.67,9.67,0,0,0,1.77-3.06,10.67,10.67,0,0,0,.63-3.66A6.31,6.31,0,0,0,339.8,27a6,6,0,0,0-4.56-1.77,7.93,7.93,0,0,0-3.48.75,7.81,7.81,0,0,0-2.64,2,9.48,9.48,0,0,0-1.68,3A11.33,11.33,0,0,0,326.84,34.72Z" transform="translate(-3.57 -2.74)"/><path class="cls-1" d="M364.16,35.74a2.23,2.23,0,0,0-.06.54,4.43,4.43,0,0,0,.57,2.25,5.47,5.47,0,0,0,1.5,1.68,6.9,6.9,0,0,0,2.1,1,8.22,8.22,0,0,0,2.43.36,9.14,9.14,0,0,0,4-.84,10.8,10.8,0,0,0,3.12-2.28l6.06,4.74a17.22,17.22,0,0,1-6.42,4.41A21.21,21.21,0,0,1,369.86,49a18.59,18.59,0,0,1-5.79-.87,13.35,13.35,0,0,1-4.65-2.58,12.08,12.08,0,0,1-3.12-4.23,13.84,13.84,0,0,1-1.14-5.76,18.9,18.9,0,0,1,1.35-7.17,18,18,0,0,1,3.72-5.79,17.1,17.1,0,0,1,5.67-3.87,18.29,18.29,0,0,1,7.26-1.41,16.35,16.35,0,0,1,5.37.84,11.82,11.82,0,0,1,4.17,2.43,10.78,10.78,0,0,1,2.7,3.93,14.14,14.14,0,0,1,1,5.4,22.39,22.39,0,0,1-.21,2.73,26.6,26.6,0,0,1-.57,3.09Zm13.62-5.88a3.05,3.05,0,0,0,.06-.6v-.6a4.33,4.33,0,0,0-1.41-3.3A5.71,5.71,0,0,0,372.38,24a7.13,7.13,0,0,0-2.91.57A8.77,8.77,0,0,0,367.22,26a7.74,7.74,0,0,0-2.4,3.84Z" transform="translate(-3.57 -2.74)"/><path class="cls-2" d="M113.06,8.2a5.77,5.77,0,0,1-.42,2.22,6.08,6.08,0,0,1-1.17,1.83,5.3,5.3,0,0,1-1.77,1.26,5.44,5.44,0,0,1-2.22.45,5.33,5.33,0,0,1-3.75-1.35,4.48,4.48,0,0,1-1.47-3.45,5.58,5.58,0,0,1,1.65-4.11,5.51,5.51,0,0,1,4-1.65,5.08,5.08,0,0,1,3.66,1.38A4.55,4.55,0,0,1,113.06,8.2Z" transform="translate(-3.57 -2.74)"/></svg>