<svg id="Ebene_1" data-name="Ebene 1" xmlns="http://www.w3.org/2000/svg" viewBox="0 0 382.8 60"><defs><style>.cls-1{fill:#1d1d1b;}.cls-2{fill:#e7343d;}</style></defs><title>Zeichenfläche 1</title><path class="cls-1" d="M29.22,0h9.6l-8,45.36H22l.72-4.08H22.5a10.4,10.4,0,0,1-4.2,3.54,13.62,13.62,0,0,1-5.94,1.26,13.41,13.41,0,0,1-5.19-1,11,11,0,0,1-3.9-2.67A11.65,11.65,0,0,1,.84,38.4,15.18,15.18,0,0,1,0,33.24,20.78,20.78,0,0,1,1.23,26a18.63,18.63,0,0,1,3.42-5.88,16.22,16.22,0,0,1,5.22-4A15,15,0,0,1,16.5,14.7,12.11,12.11,0,0,1,22.2,16a8.63,8.63,0,0,1,3.6,3.36h.12ZM9.54,32a6.63,6.63,0,0,0,1.56,4.5,5.78,5.78,0,0,0,4.62,1.8,7.65,7.65,0,0,0,3.36-.75,8.26,8.26,0,0,0,2.7-2.07,9.67,9.67,0,0,0,1.77-3.06,10.67,10.67,0,0,0,.63-3.66,6.31,6.31,0,0,0-1.68-4.53,6,6,0,0,0-4.56-1.77,7.93,7.93,0,0,0-3.48.75,7.81,7.81,0,0,0-2.64,2,9.48,9.48,0,0,0-1.68,3A11.33,11.33,0,0,0,9.54,32Z"/><path class="cls-1" d="M45.66,33a2.23,2.23,0,0,0-.06.54,4.43,4.43,0,0,0,.57,2.25,5.47,5.47,0,0,0,1.5,1.68,6.9,6.9,0,0,0,2.1,1.05,8.22,8.22,0,0,0,2.43.36,9.14,9.14,0,0,0,4-.84,10.8,10.8,0,0,0,3.12-2.28L65.4,40.5A17.22,17.22,0,0,1,59,44.91a21.21,21.21,0,0,1-7.62,1.35,18.59,18.59,0,0,1-5.79-.87,13.35,13.35,0,0,1-4.65-2.58,12.08,12.08,0,0,1-3.12-4.23,13.84,13.84,0,0,1-1.14-5.76A18.9,18.9,0,0,1,38,25.65a18,18,0,0,1,3.72-5.79A17.1,17.1,0,0,1,47.4,16a18.29,18.29,0,0,1,7.26-1.41,16.35,16.35,0,0,1,5.37.84,11.82,11.82,0,0,1,4.17,2.43,10.78,10.78,0,0,1,2.7,3.93,14.14,14.14,0,0,1,1,5.4,22.39,22.39,0,0,1-.21,2.73A26.6,26.6,0,0,1,67.08,33Zm13.62-5.88a3.05,3.05,0,0,0,.06-.6v-.6a4.33,4.33,0,0,0-1.41-3.3,5.71,5.71,0,0,0-4-1.32,7.13,7.13,0,0,0-2.91.57,8.77,8.77,0,0,0-2.25,1.41,7.74,7.74,0,0,0-2.4,3.84Z"/><path class="cls-1" d="M82.38,19.86a13.13,13.13,0,0,1,3.45-3.72,8.07,8.07,0,0,1,4.83-1.44,10.6,10.6,0,0,1,1.11.06,4.51,4.51,0,0,1,.93.18l-1.56,8.52a7.72,7.72,0,0,0-1.26-.24q-.6-.06-1.14-.06a7.86,7.86,0,0,0-3.54.72,7.74,7.74,0,0,0-2.37,1.77,7.2,7.2,0,0,0-1.38,2.25,13.87,13.87,0,0,0-.63,2.1l-2.7,15.36h-9.6l4.26-23.7q.24-1.14.51-2.94t.39-3.24H82.8q0,.3-.06.87t-.15,1.2l-.18,1.26-.15,1.05Z"/><path class="cls-1" d="M102,46.5a32.52,32.52,0,0,1-1.35,5.16A14.17,14.17,0,0,1,98.25,56a10.6,10.6,0,0,1-4,2.94A15,15,0,0,1,88.2,60,16.59,16.59,0,0,1,86,59.85a13.87,13.87,0,0,1-2-.39l1.74-8a5.24,5.24,0,0,0,1.08.24,8.8,8.8,0,0,0,1,.06A3.44,3.44,0,0,0,91,50.31a10.62,10.62,0,0,0,1.35-3.81l5.46-31h9.66Z"/><path class="cls-1" d="M138,24.24q0,.84-.09,1.8a18.09,18.09,0,0,1-.27,1.86l-2,11.64q-.3,1.56-.45,3.18T135,45.36h-8.52q0-.66.06-1.53t.18-1.65h-.12a11.31,11.31,0,0,1-9.12,3.9,13.93,13.93,0,0,1-3.21-.39,8.81,8.81,0,0,1-3-1.32,7.05,7.05,0,0,1-2.19-2.46,7.7,7.7,0,0,1-.84-3.75,9.2,9.2,0,0,1,1.8-5.88,11.89,11.89,0,0,1,4.71-3.54,24.52,24.52,0,0,1,6.6-1.74,57.38,57.38,0,0,1,7.41-.48,4.16,4.16,0,0,0,.12-.84v-.54a2.83,2.83,0,0,0-1.23-2.55,6.24,6.24,0,0,0-3.45-.81,11.59,11.59,0,0,0-4.11.78,15.06,15.06,0,0,0-3.75,2l-4-5.52a19.93,19.93,0,0,1,6.21-3.33,21.82,21.82,0,0,1,6.93-1.17,20.51,20.51,0,0,1,5,.57,11.24,11.24,0,0,1,3.93,1.77,8.76,8.76,0,0,1,2.61,3A9.07,9.07,0,0,1,138,24.24Zm-10.62,8q-1.8,0-3.66.15a14.49,14.49,0,0,0-3.33.63A6.88,6.88,0,0,0,118,34.38a2.81,2.81,0,0,0-1,2.22A2.47,2.47,0,0,0,118.23,39a5.9,5.9,0,0,0,2.73.63A6.57,6.57,0,0,0,125.58,38a7.5,7.5,0,0,0,2.34-4.23l.3-1.44Z"/><path class="cls-1" d="M148.86,59.76h-9.6l7.8-44.28h9.12l-.72,4.14h.18a11.79,11.79,0,0,1,4.23-3.57,12.12,12.12,0,0,1,5.55-1.29,13.8,13.8,0,0,1,5.28,1,11.26,11.26,0,0,1,4,2.67,11.37,11.37,0,0,1,2.46,4.08A15.25,15.25,0,0,1,178,27.6a21,21,0,0,1-1.23,7.23,18.26,18.26,0,0,1-3.45,5.91,16.56,16.56,0,0,1-5.25,4,15,15,0,0,1-6.63,1.47A12.35,12.35,0,0,1,155.7,45a8.45,8.45,0,0,1-3.6-3.33H152Zm19.5-30.9a6.74,6.74,0,0,0-1.56-4.53,5.66,5.66,0,0,0-4.56-1.83,7.41,7.41,0,0,0-3.36.78,8.64,8.64,0,0,0-2.7,2.1,10.34,10.34,0,0,0-2.46,6.72,6.31,6.31,0,0,0,1.68,4.53A6.06,6.06,0,0,0,160,38.4a7.74,7.74,0,0,0,3.45-.75,7.9,7.9,0,0,0,2.61-2,9.48,9.48,0,0,0,1.68-3A11.33,11.33,0,0,0,168.36,28.86Z"/><path class="cls-1" d="M209.22,24.24q0,.84-.09,1.8a18.09,18.09,0,0,1-.27,1.86l-2,11.64q-.3,1.56-.45,3.18t-.15,2.64H197.7q0-.66.06-1.53t.18-1.65h-.12a11.31,11.31,0,0,1-9.12,3.9,13.93,13.93,0,0,1-3.21-.39,8.81,8.81,0,0,1-3-1.32,7.05,7.05,0,0,1-2.19-2.46,7.7,7.7,0,0,1-.84-3.75,9.2,9.2,0,0,1,1.8-5.88A11.89,11.89,0,0,1,186,28.74a24.52,24.52,0,0,1,6.6-1.74,57.38,57.38,0,0,1,7.41-.48,4.16,4.16,0,0,0,.12-.84v-.54a2.83,2.83,0,0,0-1.23-2.55,6.24,6.24,0,0,0-3.45-.81,11.59,11.59,0,0,0-4.11.78,15.06,15.06,0,0,0-3.75,2l-4-5.52a19.93,19.93,0,0,1,6.21-3.33,21.82,21.82,0,0,1,6.93-1.17,20.51,20.51,0,0,1,5,.57,11.24,11.24,0,0,1,3.93,1.77,8.76,8.76,0,0,1,2.61,3A9.07,9.07,0,0,1,209.22,24.24Zm-10.62,8q-1.8,0-3.66.15a14.49,14.49,0,0,0-3.33.63,6.88,6.88,0,0,0-2.43,1.32,2.81,2.81,0,0,0-1,2.22A2.47,2.47,0,0,0,189.45,39a5.9,5.9,0,0,0,2.73.63A6.57,6.57,0,0,0,196.8,38a7.5,7.5,0,0,0,2.34-4.23l.3-1.44Z"/><path class="cls-1" d="M225.6,19.8a11.62,11.62,0,0,1,3.84-3.66A10.52,10.52,0,0,1,235,14.7a11.63,11.63,0,0,1,4.32.72,8.07,8.07,0,0,1,3,2A7.78,7.78,0,0,1,244,20.31a11,11,0,0,1,.54,3.45q0,.84-.06,1.65A10.51,10.51,0,0,1,244.2,27L241,45.36h-9.6l2.82-16.16a11.79,11.79,0,0,0,.3-2.51,4.59,4.59,0,0,0-.87-2.84,3.62,3.62,0,0,0-3.09-1.17,5.35,5.35,0,0,0-2.37.51,6,6,0,0,0-1.86,1.41A7.29,7.29,0,0,0,225,26.69a11.92,11.92,0,0,0-.75,2.51l-2.88,16.16h-9.6l4.14-23.7q.24-1.14.51-2.94t.39-3.24H226q-.06.72-.21,2t-.27,2.28Z"/><path class="cls-1" d="M256.74,33a2.23,2.23,0,0,0-.06.54,4.43,4.43,0,0,0,.57,2.25,5.47,5.47,0,0,0,1.5,1.68,6.9,6.9,0,0,0,2.1,1.05,8.22,8.22,0,0,0,2.43.36,9.14,9.14,0,0,0,4-.84,10.8,10.8,0,0,0,3.12-2.28l6.06,4.74a17.22,17.22,0,0,1-6.42,4.41,21.21,21.21,0,0,1-7.62,1.35,18.59,18.59,0,0,1-5.79-.87A13.35,13.35,0,0,1,252,42.81a12.08,12.08,0,0,1-3.12-4.23,13.84,13.84,0,0,1-1.14-5.76,18.9,18.9,0,0,1,1.35-7.17,18,18,0,0,1,3.72-5.79A17.1,17.1,0,0,1,258.48,16a18.29,18.29,0,0,1,7.26-1.41,16.35,16.35,0,0,1,5.37.84,11.82,11.82,0,0,1,4.17,2.43,10.78,10.78,0,0,1,2.7,3.93,14.14,14.14,0,0,1,1,5.4,22.39,22.39,0,0,1-.21,2.73,26.6,26.6,0,0,1-.57,3.09Zm13.62-5.88a3.05,3.05,0,0,0,.06-.6v-.6a4.33,4.33,0,0,0-1.41-3.3A5.71,5.71,0,0,0,265,21.3a7.13,7.13,0,0,0-2.91.57,8.77,8.77,0,0,0-2.25,1.41,7.74,7.74,0,0,0-2.4,3.84Z"/><path class="cls-1" d="M294.66,19.86a13.13,13.13,0,0,1,3.45-3.72,8.07,8.07,0,0,1,4.83-1.44,10.6,10.6,0,0,1,1.11.06,4.51,4.51,0,0,1,.93.18l-1.56,8.52a7.72,7.72,0,0,0-1.26-.24q-.6-.06-1.14-.06a7.86,7.86,0,0,0-3.54.72,7.74,7.74,0,0,0-2.37,1.77,7,7,0,0,0-1.38,2.25,13.87,13.87,0,0,0-.63,2.1l-2.7,15.36h-9.6l4.26-23.7q.24-1.14.51-2.94t.39-3.24h9.12q0,.3-.06.87t-.15,1.2l-.18,1.26-.15,1.05Z"/><path class="cls-1" d="M310.32,39.72a6,6,0,0,1-.45,2.34A6.43,6.43,0,0,1,308.64,44a5.55,5.55,0,0,1-1.89,1.32,5.91,5.91,0,0,1-2.37.48,5.66,5.66,0,0,1-4-1.41,4.78,4.78,0,0,1-1.53-3.69,5.94,5.94,0,0,1,1.74-4.38,5.87,5.87,0,0,1,4.32-1.74A5.36,5.36,0,0,1,308.79,36,4.9,4.9,0,0,1,310.32,39.72Z"/><path class="cls-1" d="M343,0h9.6l-8,45.36H335.7l.72-4.08h-.18a10.47,10.47,0,0,1-4.2,3.54,13.65,13.65,0,0,1-5.94,1.26,13.37,13.37,0,0,1-5.19-1,10.93,10.93,0,0,1-3.9-2.67,11.65,11.65,0,0,1-2.43-4.05,15.18,15.18,0,0,1-.84-5.16A20.78,20.78,0,0,1,315,26a18.44,18.44,0,0,1,3.42-5.88,16.22,16.22,0,0,1,5.22-4,15,15,0,0,1,6.63-1.47,12.11,12.11,0,0,1,5.7,1.26,8.75,8.75,0,0,1,3.6,3.36h.12ZM323.28,32a6.63,6.63,0,0,0,1.56,4.5,5.78,5.78,0,0,0,4.62,1.8,7.68,7.68,0,0,0,3.36-.75,8.37,8.37,0,0,0,2.7-2.07,9.86,9.86,0,0,0,1.77-3.06,10.67,10.67,0,0,0,.63-3.66,6.36,6.36,0,0,0-1.68-4.53,6,6,0,0,0-4.56-1.77,7.9,7.9,0,0,0-3.48.75,7.72,7.72,0,0,0-2.64,2,9.29,9.29,0,0,0-1.68,3A11.33,11.33,0,0,0,323.28,32Z"/><path class="cls-1" d="M360.6,33a2.21,2.21,0,0,0-.07.54,4.43,4.43,0,0,0,.57,2.25,5.47,5.47,0,0,0,1.5,1.68,7.13,7.13,0,0,0,2.1,1.05,8.28,8.28,0,0,0,2.44.36,9.13,9.13,0,0,0,4-.84,10.8,10.8,0,0,0,3.12-2.28l6.07,4.74a17.33,17.33,0,0,1-6.43,4.41,21.15,21.15,0,0,1-7.61,1.35,18.5,18.5,0,0,1-5.79-.87,13.49,13.49,0,0,1-4.66-2.58,12.08,12.08,0,0,1-3.12-4.23,14,14,0,0,1-1.13-5.76,19.09,19.09,0,0,1,1.34-7.17,18.16,18.16,0,0,1,3.72-5.79A17,17,0,0,1,362.34,16a18.22,18.22,0,0,1,7.26-1.41,16.39,16.39,0,0,1,5.37.84,11.91,11.91,0,0,1,4.17,2.43,11,11,0,0,1,2.7,3.93,14.34,14.34,0,0,1,1,5.4,22.39,22.39,0,0,1-.21,2.73A28.89,28.89,0,0,1,382,33Zm13.62-5.88a4,4,0,0,0,0-.6v-.6a4.33,4.33,0,0,0-1.41-3.3,5.71,5.71,0,0,0-4.05-1.32,7.16,7.16,0,0,0-2.91.57,8.77,8.77,0,0,0-2.25,1.41,7.53,7.53,0,0,0-1.55,1.86,6.92,6.92,0,0,0-.84,2Z"/><path class="cls-2" d="M109.5,5.46a5.77,5.77,0,0,1-.42,2.22,6.08,6.08,0,0,1-1.17,1.83,5.3,5.3,0,0,1-1.77,1.26,5.44,5.44,0,0,1-2.22.45,5.33,5.33,0,0,1-3.75-1.35A4.48,4.48,0,0,1,98.7,6.42a5.58,5.58,0,0,1,1.65-4.11A5.51,5.51,0,0,1,104.4.66,5.08,5.08,0,0,1,108.06,2,4.55,4.55,0,0,1,109.5,5.46Z"/></svg>